<?xml version="1.0" encoding="utf-8"?>
<!-- Generator: Adobe Illustrator 22.0.1, SVG Export Plug-In . SVG Version: 6.00 Build 0)  -->
<svg version="1.1" id="Calque_1" xmlns="http://www.w3.org/2000/svg" xmlns:xlink="http://www.w3.org/1999/xlink" x="0px" y="0px"
	 viewBox="0 0 100 100" style="enable-background:new 0 0 100 100;" xml:space="preserve">
<style type="text/css">
	.st0{fill:#A4FFA9;}
</style>
<g>
	<path class="st0" d="M93.4,64.4H69.7V38.8c0-2.6-0.3-4.4-0.8-5.4c-0.5-1-1.5-1.5-3-1.5c-2.7,0-4,2.3-4,7v25.5H38.1V38.8
		c0-2.6-0.3-4.4-0.9-5.4c-0.6-1-1.6-1.5-3-1.5c-2.6,0-3.9,2.3-3.9,7v25.5H6.6V34c0-7.1,2.4-13.1,7.2-18.1s10.6-7.4,17.4-7.4
		c7,0,13.3,3,18.9,8.9c6.2-5.9,12.4-8.9,18.6-8.9c7.9,0,14.2,2.9,19,8.6c3.8,4.5,5.6,11,5.6,19.6V64.4z"/>
</g>
<rect x="6.6" y="83" class="st0" width="23.7" height="7.7"/>
<rect x="38.1" y="71.5" class="st0" width="23.7" height="19.2"/>
<rect x="69.7" y="77" class="st0" width="23.7" height="13.7"/>
</svg>
